<svg id="Filled" height="512" viewBox="0 0 512 512" width="512" xmlns="http://www.w3.org/2000/svg"><path d="m104 168c-17.167 3.972-36.176 20.527-48 56-16 48-24 56-24 56h152v-112z" fill="#5e3725"/><circle cx="280" cy="168" fill="#f0c6a4" r="32"/><circle cx="72" cy="168" fill="#f0c6a4" r="32"/><rect fill="#f7cca9" height="240" rx="104" width="208" x="72" y="24"/><path d="m280 128v16c-60.95 0-100.13-29.02-103.73-31.79-31.43 17.26-68.51 31.79-104.27 31.79v-16a104 104 0 0 1 177.54-73.54q1.92 1.92 3.74 3.95a103.6 103.6 0 0 1 26.72 69.59z" fill="#5e3725"/><path d="m328 296v192h-304v-192a32 32 0 0 1 32-32h240a32 32 0 0 1 32 32z" fill="#f7b030"/><path d="m224 264a48 48 0 0 1 -96 0z" fill="#f7cca9"/><path d="m344 64h144v112h-144z" fill="#dadcde"/><path d="m344 176h144a0 0 0 0 1 0 0 32 32 0 0 1 -32 32h-80a32 32 0 0 1 -32-32 0 0 0 0 1 0 0z" fill="#b6b9ba"/><path d="m400 208h32v32h-32z" fill="#9aa3a8"/><path d="m472 488h-144v-144h160z" fill="#2d85cc"/><path d="m416 440a23.9 23.9 0 0 0 -16 6.116 24 24 0 1 0 0 35.768 24 24 0 1 0 16-41.884z" fill="#f7b030"/><path d="m72 344h208v144h-208z" fill="#35a872"/><path d="m328 312h160v32h-160z" fill="#1261a0"/><circle cx="216" cy="168" r="8"/><circle cx="136" cy="168" r="8"/><path d="m168 192h16a8 8 0 0 0 0-16h-8v-8a8 8 0 0 0 -16 0v16a8 8 0 0 0 8 8z"/><path d="m219.077 192.615a8 8 0 0 0 -10.462 4.308c-.079.191-8.23 19.077-32.615 19.077-23.955 0-32.248-18.238-32.636-19.126a8 8 0 0 0 -14.749 6.2c.492 1.184 12.453 28.926 47.385 28.926s46.893-27.742 47.385-28.923a8 8 0 0 0 -4.308-10.462z"/><path d="m488 56h-144a8 8 0 0 0 -8 8v112a40.045 40.045 0 0 0 40 40h16v24a8 8 0 0 0 8 8h8v56h-72v-8a40.045 40.045 0 0 0 -40-40h-62.369a112.75 112.75 0 0 0 43.924-48.8h2.445a40 40 0 0 0 8-79.2 112 112 0 0 0 -224 0 39.993 39.993 0 0 0 -8.4 75.665 149.955 149.955 0 0 0 -7.19 17.805c-7.17 21.509-12.638 34.665-16.387 42.53a39.964 39.964 0 0 0 -16.023 32v192a8 8 0 0 0 8 8h448a8 8 0 0 0 7.951-7.116l5.479-49.313a7.995 7.995 0 0 0 7.735-13.675l-5.683-4.81 8.466-76.2a8.07 8.07 0 0 0 .052-.886v-32a8 8 0 0 0 -8-8h-64v-56h8a8 8 0 0 0 8-8v-24h16a40.045 40.045 0 0 0 40-40v-112a8 8 0 0 0 -8-8zm-408 296h192v128h-192zm7.365-16 36.362-51.946a55.981 55.981 0 0 0 104.546 0l36.362 51.946zm127.835-64a40 40 0 0 1 -78.39 0zm-39.2-16a96.108 96.108 0 0 1 -96-96v-8.228c30.652-1.678 63.829-12.928 98.949-33.532 4.737 4.446 35.632 31.248 93.051 33.579v8.181a96.108 96.108 0 0 1 -96 96zm128-88.8a24.038 24.038 0 0 1 -20.343 23.722 111.684 111.684 0 0 0 4.343-30.922v-15.427a24.037 24.037 0 0 1 16 22.627zm-32-39.2v7.8c-43.161-1.954-69.58-19.254-78.727-26.405q2.079-1.349 4.165-2.739a420.033 420.033 0 0 0 51.742-40.715 95.572 95.572 0 0 1 22.82 62.059zm-96-96a95.564 95.564 0 0 1 61.827 22.624c-18.077 16.692-87.694 76.743-157.827 81.121v-7.745a96.108 96.108 0 0 1 96-96zm-128 135.2a24.037 24.037 0 0 1 16-22.623v15.423a111.684 111.684 0 0 0 4.343 30.918 24.038 24.038 0 0 1 -20.343-23.718zm15.59 59.33a128.888 128.888 0 0 1 8.147-19.34c.088 0 .175.006.263.006h2.445a112.75 112.75 0 0 0 43.924 48.804h-62.369c-1.06 0-2.107.054-3.146.135 3.066-7.65 6.646-17.35 10.736-29.605zm-31.59 69.47a24.01 24.01 0 0 1 11.594-20.538l.471.247q.188-.358.383-.738a23.846 23.846 0 0 1 11.552-2.971h56.635l-47.189 67.412a7.957 7.957 0 0 0 -1.446 4.588v136h-32zm288 184h-32v-136a7.957 7.957 0 0 0 -1.45-4.585l-47.185-67.415h56.635a24.028 24.028 0 0 1 24 24zm85.336-4.076a8 8 0 0 0 -10.672 0 16 16 0 1 1 0-23.848 8 8 0 0 0 10.672 0 16 16 0 1 1 0 23.848zm38.364 4.076a31.991 31.991 0 0 0 -43.7-43.713 31.985 31.985 0 0 0 -43.695 43.713h-20.305v-128h45.069l89.572 75.792-5.801 52.208zm-37.86-128h73.222l-6.293 56.632zm74.16-16h-144v-16h144zm-96-264v72a8 8 0 0 0 16 0v-72h32v72a8 8 0 0 0 16 0v-72h32v96h-128v-96zm40 160h-16v-16h16zm32-32h-80a24.042 24.042 0 0 1 -22.629-16h125.258a24.042 24.042 0 0 1 -22.629 16z"/></svg>