<?xml version="1.0" encoding="iso-8859-1"?>
<!-- Generator: Adobe Illustrator 19.0.0, SVG Export Plug-In . SVG Version: 6.00 Build 0)  -->
<svg version="1.1" id="Capa_1" xmlns="http://www.w3.org/2000/svg" xmlns:xlink="http://www.w3.org/1999/xlink" x="0px" y="0px"
	 viewBox="0 0 512 512" style="enable-background:new 0 0 512 512;" xml:space="preserve">
<path style="fill:#50515B;" d="M106.187,206.597H7.842V60.598c0-29.27,23.724-52.994,52.994-52.994h56.462
	c29.27,0,52.994,23.724,52.994,52.994H64.73v29.605"/>
<path style="fill:#393A42;" d="M100.486,7.604H60.837c-29.27,0-52.994,23.724-52.994,52.994v145.999h39.649V60.598
	C47.491,31.328,71.216,7.604,100.486,7.604z"/>
<path style="fill:#3FACC9;" d="M228.865,216.307v-28.976h45.624h17.236l-17.236,27.384c9.216,6.732,15.208,17.611,15.208,29.899
	c0,9.561-3.619,18.27-9.571,24.84h-54.87c-5.951-6.57-9.571-15.279-9.571-24.84C215.685,233.259,220.805,223.1,228.865,216.307z"/>
<path style="fill:#369AB2;" d="M244.761,216.307c-2.9,6.793-4.745,16.952-4.745,28.307c0,9.561,1.298,18.27,3.447,24.84h-18.209
	c-5.951-6.57-9.571-15.279-9.571-24.84c0-11.355,5.12-21.514,13.18-28.307v-28.976h15.897L244.761,216.307L244.761,216.307z"/>
<path style="fill:#FCD2BE;" d="M170.293,60.598v54.819c0,35.191-28.54,63.731-63.741,63.731c-9.429,0-18.371-2.048-26.421-5.718
	v-0.01c-19.476-8.881-33.701-27.283-36.712-49.263c-2.829-0.994-5.485-2.616-7.756-4.887c-8.03-8.02-8.03-21.038,0-29.057
	c8.02-8.04,21.048-8.04,29.077,0l-0.01-29.615h9.013L170.293,60.598L170.293,60.598z"/>
<path style="fill:#FAB998;" d="M80.131,173.421c-19.476-8.881-33.701-27.283-36.712-49.263c-2.829-0.994-5.485-2.616-7.756-4.887
	c-8.03-8.02-8.03-21.038,0-29.057c8.02-8.04,21.048-8.04,29.077,0l5.353-30.69l16.779,3.407
	C79.816,75.127,50.019,119.646,80.131,173.421z"/>
<path style="fill:#00C7A9;" d="M155.957,332.566c0,0-39.074,19.537-78.635,11.893c-14.802-2.849-29.676-9.51-42.592-22.427
	c0,0,12.379-82.924,35.576-131.386c3.082-6.438,6.357-12.268,9.824-17.215l14.427,1.115l29.159,2.261
	c0,4.055,0.517,11.994,1.582,22.345C128.907,234.556,138.823,298.308,155.957,332.566z"/>
<path style="fill:#04AF92;" d="M77.322,344.459c-14.802-2.849-29.676-9.51-42.592-22.427c0,0,15.887-106.435,45.401-148.601
	l14.427,1.115l4.177,4.126C87.937,200.846,62.652,286.648,77.322,344.459z"/>
<g>
	<path style="fill:#F7882D;" d="M7.839,403.243h115.096c9.788,0,17.722-7.934,17.722-17.722l0,0c0-9.788-7.934-17.722-17.722-17.722
		H7.839V403.243z"/>
	<path style="fill:#F7882D;" d="M504.129,403.243H389.032c-9.788,0-17.722-7.934-17.722-17.722l0,0
		c0-9.788,7.934-17.722,17.722-17.722h115.096V403.243z"/>
</g>
<path style="fill:#6B4B3D;" d="M461.88,244.107l-15.502-22.204L334.438,61.612c-5.201-19.263-3.173-54.008,50.561-54.008
	c11.852,0,23.653,0.213,34.968,1.389c39.997,4.157,73.951,20.379,82.64,82.021C513.759,170.095,461.88,244.107,461.88,244.107z"/>
<path style="fill:#E27423;" d="M339.374,282.127c0,3.498-1.419,6.671-3.711,8.963c-2.291,2.291-5.465,3.711-8.963,3.711H172.595
	c-6.996,0-12.673-5.678-12.673-12.673c0-3.498,1.419-6.671,3.711-8.963c2.291-2.291,5.465-3.711,8.963-3.711h154.107
	C333.697,269.453,339.374,275.131,339.374,282.127z"/>
<path style="fill:#F7882D;" d="M339.374,282.127c0,3.498-1.419,6.671-3.711,8.963c-2.291,2.291-5.465,3.711-8.963,3.711H219.739
	c-6.996,0-12.673-5.678-12.673-12.673c0-3.498,1.419-6.671,3.711-8.963c2.291-2.291,5.465-3.711,8.963-3.711h106.962
	C333.697,269.453,339.374,275.131,339.374,282.127z"/>
<rect x="235.966" y="294.8" style="fill:#E27423;" width="31.43" height="209.595"/>
<rect x="251.965" y="312.674" style="fill:#F7882D;" width="15.424" height="191.721"/>
<path style="fill:#5B3D2D;" d="M461.88,244.107l-15.502-22.204c3.954-44.529,15.644-208.622-26.411-212.91
	c39.997,4.157,73.951,20.379,82.64,82.021C513.759,170.095,461.88,244.107,461.88,244.107z"/>
<path style="fill:#EF4A6E;" d="M348.774,332.566c0,0,39.074,19.537,78.635,11.893c14.802-2.849,29.676-9.51,42.592-22.427
	c0,0-12.379-82.924-35.576-131.386c-3.082-6.438-6.357-12.268-9.824-17.215l-14.427,1.115l-29.159,2.261
	c0,4.055-0.517,11.994-1.582,22.345C375.824,234.556,365.908,298.308,348.774,332.566z"/>
<path style="fill:#D8254F;" d="M427.409,344.459c14.802-2.849,29.676-9.51,42.592-22.427c0,0-15.887-106.435-45.401-148.601
	l-14.427,1.115l-4.177,4.126C416.794,200.846,442.079,286.648,427.409,344.459z"/>
<path style="fill:#FCD2BE;" d="M469.068,119.27c-2.271,2.271-4.927,3.893-7.756,4.887c-3.569,26.056-22.883,47.084-48.037,53.187
	c-4.836,1.186-9.895,1.805-15.096,1.805c-35.201,0-63.741-28.54-63.741-63.731V61.612c0,0,28.256,1.014,39.409-10.139
	c16.191,21.017,37.229,23.947,51.18,23.035c0-0.01,0-0.01,0-0.01c8.932-0.588,14.965-2.748,14.965-2.748v18.462l0.01-0.01
	c5.921-5.921,14.569-7.472,21.909-4.654c2.606,0.994,5.049,2.555,7.158,4.664C477.098,98.233,477.098,111.251,469.068,119.27z"/>
<path style="fill:#FAB998;" d="M469.068,119.27c-2.271,2.271-4.927,3.893-7.756,4.887c-3.569,26.056-22.883,47.084-48.037,53.187
	c33.103-18.158,12.034-101.71,11.751-102.836c0-0.01,0-0.01,0-0.01c8.932-0.588,14.965-2.748,14.965-2.748v18.462l0.01-0.01
	c5.921-5.921,14.569-7.472,21.909-4.654c2.606,0.994,5.049,2.555,7.158,4.664C477.098,98.233,477.098,111.251,469.068,119.27z"/>
<path d="M123.5,100.524V89.982c0-4.199-3.404-7.604-7.604-7.604s-7.604,3.405-7.604,7.604v10.542c0,4.199,3.404,7.604,7.604,7.604
	S123.5,104.724,123.5,100.524z"/>
<path d="M135.7,89.982v10.542c0,4.199,3.404,7.604,7.604,7.604s7.604-3.405,7.604-7.604V89.982c0-4.199-3.404-7.604-7.604-7.604
	S135.7,85.783,135.7,89.982z"/>
<path d="M99.307,129.562c-2.083-3.647-6.729-4.913-10.374-2.83c-3.647,2.083-4.914,6.728-2.83,10.375
	c6.518,11.406,17.682,17.847,32.287,18.627c0.138,0.007,0.275,0.011,0.412,0.011c4.013,0,7.37-3.144,7.586-7.198
	c0.224-4.193-2.994-7.774-7.188-7.998C109.749,140.043,103.242,136.45,99.307,129.562z"/>
<path d="M148.262,385.52c0-13.965-11.361-25.326-25.326-25.326H15.443V229.405c0-4.199-3.404-7.604-7.604-7.604
	s-7.604,3.405-7.604,7.604v138.393v35.446v101.153c0,4.199,3.404,7.604,7.604,7.604s7.604-3.405,7.604-7.604v-59.038H93.94
	c4.2,0,7.604-3.405,7.604-7.604s-3.404-7.604-7.604-7.604H15.443v-19.303h94.215v93.549c0,4.199,3.404,7.604,7.604,7.604
	s7.604-3.405,7.604-7.604v-93.63C137.932,409.776,148.262,398.835,148.262,385.52z M122.935,395.639H15.443v-20.238h107.491
	c5.579,0,10.118,4.539,10.118,10.118C133.053,391.099,128.514,395.639,122.935,395.639z"/>
<path d="M362.008,435.954c-7.958-32.686-7.138-57.171,2.37-70.807c5.054-7.249,12.81-11.612,23.049-12.994
	c1.042,0.164,2.092,0.322,3.157,0.466c6.002,0.811,11.85,1.215,17.529,1.215c26.808,0,49.825-8.986,67.266-26.425
	c1.704-1.704,2.499-4.115,2.143-6.499c-0.504-3.379-12.615-83.324-35.688-132.375c-1.788-3.8-6.319-5.431-10.117-3.644
	c-3.8,1.787-5.431,6.317-3.645,10.117c19.327,41.087,31.061,107.613,33.793,124.276c-17.512,15.874-40.648,22.036-68.828,18.321
	c-14.451-1.905-26.851-6.079-34.088-8.926c6.302-14.658,11.386-32.521,15.412-50.293c2.686,0.505,5.221,0.72,7.588,0.72
	c5.965,0,10.866-1.358,14.427-2.834c17.358-7.19,26.44-25.704,26.44-40.277c0-4.199-3.404-7.604-7.604-7.604
	c-4.2,0-7.604,3.405-7.604,7.604c0,9.29-5.977,21.638-17.052,26.225c-4.043,1.675-8.432,2.06-13.04,1.237
	c5.735-29.096,8.656-55.366,9.492-63.565c0.427-4.178-2.615-7.91-6.793-8.336c-4.185-0.429-7.91,2.616-8.336,6.794
	c-1.797,17.617-4.725,38.496-8.688,59.028c-3.806-2.487-7.67-5.65-11.544-9.524c-9.683-9.683-19.608-16.453-29.497-20.121
	c-3.939-1.461-8.313,0.548-9.775,4.485c-1.46,3.938,0.547,8.313,4.485,9.774c7.823,2.902,15.907,8.492,24.032,16.616
	c6.705,6.704,13.082,11.375,19.021,14.549c-4.497,20.126-10.009,38.968-16.451,52.903c-13.063,2.375-23.256,8.614-30.337,18.605
	c-12.437,17.546-14.077,45.602-4.878,83.389c3.489,14.336,5.807,21.96,7.34,27.004c1.186,3.902,1.743,5.732,1.968,7.782
	l-19.092,8.124c-3.865,1.645-5.664,6.11-4.02,9.974c1.232,2.893,4.042,4.628,7,4.628c0.993,0,2.003-0.196,2.975-0.609l23.826-10.139
	c2.75-1.17,4.558-3.842,4.625-6.828c0.173-7.805-0.617-10.405-2.73-17.357c-1.484-4.881-3.727-12.258-7.115-26.178
	c-7.997-32.848-7.129-57.4,2.508-70.998c5.019-7.081,12.648-11.369,22.691-12.768c2.827,1.254,7.618,3.238,13.854,5.292
	c-3.903,2.858-7.303,6.346-10.175,10.465c-12.247,17.566-13.82,45.525-4.671,83.102c3.489,14.336,5.807,21.96,7.34,27.004
	c1.186,3.902,1.743,5.732,1.968,7.782l-19.092,8.124c-3.865,1.645-5.664,6.11-4.02,9.974c1.232,2.893,4.042,4.628,7,4.628
	c0.993,0,2.003-0.196,2.975-0.609l23.826-10.139c2.75-1.17,4.558-3.842,4.625-6.828c0.173-7.805-0.617-10.405-2.73-17.357
	C367.639,457.252,365.396,449.876,362.008,435.954z"/>
<path d="M504.129,196.961c-4.2,0-7.604,3.405-7.604,7.604v155.628H389.032c-13.965,0-25.326,11.361-25.326,25.326
	c0,13.315,10.33,24.255,23.396,25.246v93.63c0,4.199,3.404,7.604,7.604,7.604c4.2,0,7.604-3.405,7.604-7.604v-93.549h94.215v19.303
	h-78.497c-4.2,0-7.604,3.405-7.604,7.604s3.404,7.604,7.604,7.604h78.497v59.038c0,4.199,3.404,7.604,7.604,7.604
	c4.2,0,7.604-3.405,7.604-7.604V403.243v-35.446V204.565C511.733,200.366,508.328,196.961,504.129,196.961z M378.914,385.52
	c0-5.579,4.54-10.118,10.118-10.118h107.491v20.238H389.032C383.453,395.639,378.914,391.1,378.914,385.52z"/>
<path d="M181.826,450.63c-2.115,6.955-2.906,9.557-2.732,17.364c0.066,2.987,1.876,5.658,4.625,6.828l23.827,10.14
	c0.971,0.414,1.98,0.609,2.974,0.609c2.957,0,5.769-1.736,7.001-4.628c1.644-3.865-0.155-8.33-4.02-9.974l-19.094-8.125
	c0.227-2.053,0.783-3.883,1.971-7.789c1.534-5.044,3.851-12.667,7.339-26.997c9.53-39.15,7.433-67.819-6.233-85.212
	c-8.34-10.613-20.941-16.67-36.626-17.706c-6.402-14.144-11.877-33.1-16.33-53.278c5.275-3.111,10.872-7.408,16.717-13.253
	c8.124-8.124,16.209-13.714,24.032-16.616c3.938-1.46,5.945-5.836,4.485-9.774c-1.461-3.938-5.835-5.946-9.775-4.485
	c-9.889,3.668-19.814,10.438-29.497,20.121c-3.097,3.097-6.19,5.732-9.251,7.947c-3.81-20.021-6.635-40.285-8.385-57.45
	c-0.426-4.178-4.149-7.217-8.336-6.794c-4.178,0.426-7.22,4.158-6.793,8.336c0.83,8.147,3.718,34.136,9.381,63.01
	c-5.519,1.483-10.762,1.292-15.526-0.682c-11.076-4.588-17.052-16.937-17.052-26.225c0-4.199-3.404-7.604-7.604-7.604
	s-7.604,3.405-7.604,7.604c0,14.572,9.082,33.086,26.44,40.277c3.564,1.476,8.463,2.834,14.427,2.834
	c3.081,0,6.448-0.365,10.061-1.26c4.045,17.95,9.169,36.026,15.535,50.834c-7.239,2.848-19.639,7.021-34.088,8.926
	c-28.182,3.715-51.313-2.447-68.829-18.321c2.732-16.662,14.467-83.188,33.794-124.276c1.787-3.8,0.155-8.33-3.645-10.117
	c-3.802-1.787-8.33-0.156-10.117,3.644C39.824,237.585,27.712,317.53,27.208,320.909c-0.356,2.384,0.44,4.795,2.143,6.499
	c17.441,17.441,40.454,26.426,67.267,26.425c5.677,0,11.529-0.404,17.529-1.215c2.047-0.277,4.048-0.596,6.007-0.943
	c13.019,0.123,22.766,4.173,28.964,12.06c10.487,13.345,11.667,38.319,3.415,72.218c-3.387,13.914-5.63,21.29-7.113,26.171
	c-2.115,6.954-2.906,9.557-2.732,17.363c0.066,2.987,1.876,5.658,4.625,6.828l23.826,10.14c0.971,0.414,1.98,0.609,2.974,0.609
	c2.957,0,5.769-1.736,7.001-4.628c1.644-3.864-0.155-8.33-4.02-9.974l-19.093-8.125c0.227-2.053,0.783-3.883,1.97-7.789
	c1.534-5.044,3.852-12.667,7.339-26.998c9.53-39.149,7.434-67.819-6.232-85.212c-3.363-4.28-7.424-7.814-12.094-10.585
	c3.926-1.474,6.876-2.76,8.614-3.555c12.501,0.324,21.897,4.364,27.929,12.04c10.486,13.345,11.667,38.319,3.415,72.219
	C185.553,438.374,183.31,445.749,181.826,450.63z"/>
<path d="M346.978,282.127c0-11.181-9.096-20.277-20.277-20.277H172.595c-11.181,0-20.277,9.096-20.277,20.277
	s9.096,20.277,20.277,20.277h154.107C337.882,302.404,346.978,293.307,346.978,282.127z M167.525,282.127
	c0-2.795,2.274-5.069,5.069-5.069h154.107c2.795,0,5.069,2.274,5.069,5.069s-2.274,5.069-5.069,5.069H172.595
	C169.799,287.196,167.525,284.922,167.525,282.127z"/>
<path d="M259.786,315.585v60.324c0,4.199,3.404,7.604,7.604,7.604c4.2,0,7.604-3.405,7.604-7.604v-60.324
	c0-4.199-3.404-7.604-7.604-7.604C263.19,307.981,259.786,311.386,259.786,315.585z"/>
<path d="M296.792,496.792h-21.798v-95.535c0-4.199-3.404-7.604-7.604-7.604c-4.2,0-7.604,3.405-7.604,7.604v95.535h-16.222V315.585
	c0-4.199-3.404-7.604-7.604-7.604s-7.604,3.405-7.604,7.604v181.207h-21.798c-4.2,0-7.604,3.405-7.604,7.604
	c0,4.199,3.404,7.604,7.604,7.604h29.402h31.43h29.402c4.2,0,7.604-3.405,7.604-7.604
	C304.396,500.197,300.992,496.792,296.792,496.792z"/>
<path d="M396.444,100.524V89.982c0-4.199-3.404-7.604-7.604-7.604s-7.604,3.405-7.604,7.604v10.542c0,4.199,3.404,7.604,7.604,7.604
	S396.444,104.724,396.444,100.524z"/>
<path d="M369.036,100.524V89.982c0-4.199-3.404-7.604-7.604-7.604c-4.2,0-7.604,3.405-7.604,7.604v10.542
	c0,4.199,3.404,7.604,7.604,7.604C365.632,108.128,369.036,104.724,369.036,100.524z"/>
<path d="M378.348,148.547c0.217,4.055,3.572,7.198,7.586,7.198c0.137,0,0.275-0.004,0.412-0.011
	c14.605-0.78,25.769-7.221,32.287-18.627c2.085-3.646,0.817-8.291-2.83-10.375c-3.645-2.082-8.29-0.816-10.374,2.83
	c-3.936,6.888-10.444,10.481-19.893,10.986C381.342,140.771,378.124,144.353,378.348,148.547z"/>
<path d="M334.17,69.211c2.758,0.1,24.12,0.578,38.461-7.463c18.914,19.989,43.4,22.273,59.761,19.683v8.782
	c0,3.075,1.857,5.843,4.699,7.02c2.839,1.176,6.116,0.521,8.292-1.654c3.612-3.612,9.03-4.765,13.823-2.925
	c1.668,0.636,3.178,1.624,4.494,2.939c2.444,2.442,3.792,5.691,3.792,9.148c0,3.457-1.347,6.707-3.795,9.152
	c-1.4,1.399-3.049,2.439-4.9,3.089c-2.691,0.945-4.626,3.316-5.014,6.142c-3.783,27.604-27.685,48.42-55.599,48.42
	c-30.954,0-56.137-25.178-56.137-56.127V84.647c0-4.199-3.404-7.604-7.604-7.604c-4.2,0-7.604,3.405-7.604,7.604v30.771
	c0,39.335,32.006,71.335,71.345,71.335c34.04,0,63.389-24.369,69.958-57.348c2.301-1.27,4.411-2.861,6.304-4.754
	c5.322-5.316,8.254-12.386,8.254-19.909s-2.932-14.593-8.251-19.906c-2.837-2.837-6.142-4.987-9.808-6.385
	c-5.552-2.131-11.501-2.408-17.042-0.998v-5.702c0-2.464-1.208-4.77-3.217-6.197c-2.008-1.425-4.597-1.785-6.926-0.971
	c-1.412,0.494-34.866,11.762-57.585-17.749c-1.334-1.734-3.351-2.808-5.534-2.949c-2.182-0.14-4.321,0.665-5.868,2.211
	c-5.229,5.229-18.056,7.423-27.832,7.866c-0.95-6.722-1.009-17.072,5.188-25.166c6.903-9.016,20.084-13.588,39.175-13.588
	c56.228,0,100.036,5.66,110.078,76.867c7.269,51.549-13.831,101.503-27.056,126.692c-1.952,3.718-0.52,8.315,3.198,10.267
	c1.127,0.592,2.337,0.873,3.527,0.873c2.735,0,5.38-1.48,6.739-4.071c14.075-26.809,36.514-80.113,28.65-135.885
	c-5.414-38.391-20.751-63.596-46.884-77.058C440.155,0.997,411.93,0.001,385,0.001c-24.074,0-41.317,6.578-51.25,19.55
	c-12.375,16.163-8.772,36.186-6.649,44.045C327.972,66.815,330.838,69.091,334.17,69.211z"/>
<path d="M216.939,256.718c4.165-0.536,7.107-4.347,6.571-8.512c-0.148-1.145-0.222-2.353-0.222-3.592
	c0-8.684,3.819-16.882,10.476-22.492c1.714-1.445,2.704-3.573,2.704-5.814v-21.372h41.485l-9.901,15.73
	c-2.128,3.381-1.276,7.834,1.951,10.19c7.569,5.53,12.089,14.412,12.089,23.759c0,1.239-0.074,2.447-0.222,3.592
	c-0.535,4.165,2.406,7.976,6.571,8.512c0.33,0.043,0.656,0.063,0.98,0.063c3.767,0,7.038-2.798,7.532-6.635
	c0.23-1.785,0.347-3.648,0.347-5.533c0-11.781-4.728-23.072-12.905-31.364l13.764-21.869c1.474-2.343,1.559-5.302,0.221-7.727
	c-1.338-2.423-3.888-3.929-6.656-3.929h-62.859c-4.2,0-7.604,3.405-7.604,7.604v25.634c-8.418,8.354-13.18,19.696-13.18,31.649
	c0,1.885,0.117,3.747,0.347,5.533C208.963,254.312,212.788,257.255,216.939,256.718z"/>
<path d="M7.842,105.029c4.2,0,7.604-3.405,7.604-7.604V60.598c0-25.028,20.362-45.39,45.39-45.39h56.461
	c22.438,0,41.125,16.366,44.755,37.787H64.73c-4.2,0-7.604,3.405-7.604,7.604v16.869c-5.535-1.406-11.476-1.15-17.016,0.977
	c-3.682,1.404-6.988,3.555-9.821,6.388c-5.322,5.316-8.253,12.386-8.253,19.909s2.931,14.593,8.25,19.906
	c1.895,1.896,4.006,3.487,6.307,4.758c6.569,32.978,35.918,57.348,69.958,57.348c39.34,0,71.345-32,71.345-71.335V84.647
	c0-4.199-3.404-7.604-7.604-7.604s-7.604,3.405-7.604,7.604v30.771c0,30.949-25.183,56.127-56.137,56.127
	c-27.914,0-51.815-20.817-55.599-48.42c-0.387-2.826-2.323-5.197-5.014-6.142c-1.851-0.65-3.5-1.69-4.903-3.092
	c-2.444-2.442-3.791-5.691-3.791-9.148s1.346-6.707,3.794-9.151c1.313-1.312,2.824-2.3,4.507-2.942
	c4.774-1.833,10.194-0.682,13.742,2.865l0.01,0.01c0.008,0.008,0.017,0.016,0.026,0.024c0.1,0.101,0.208,0.195,0.313,0.291
	c2.951,2.683,7.518,2.642,10.412-0.182c1.569-1.531,2.328-3.576,2.284-5.608V68.202h97.959c4.2,0,7.604-3.405,7.604-7.604
	C177.897,27.185,150.712,0,117.298,0H60.837C27.422,0,0.238,27.185,0.238,60.598v36.826C0.238,101.624,3.642,105.029,7.842,105.029z
	"/>
<path d="M7.842,214.201h33.964c4.2,0,7.604-3.405,7.604-7.604s-3.404-7.604-7.604-7.604h-26.36v-77.236
	c0-4.199-3.404-7.604-7.604-7.604s-7.604,3.405-7.604,7.604v84.84C0.238,210.797,3.642,214.201,7.842,214.201z"/>
<g>
</g>
<g>
</g>
<g>
</g>
<g>
</g>
<g>
</g>
<g>
</g>
<g>
</g>
<g>
</g>
<g>
</g>
<g>
</g>
<g>
</g>
<g>
</g>
<g>
</g>
<g>
</g>
<g>
</g>
</svg>
