<svg height="496pt" viewBox="0 0 496 496" width="496pt" xmlns="http://www.w3.org/2000/svg"><path d="m488 248c0 132.546875-107.453125 240-240 240s-240-107.453125-240-240 107.453125-240 240-240 240 107.453125 240 240zm0 0" fill="#85d3c1"/><path d="m320.320312 334.480469-.320312 1.519531c0 15.359375-6.078125 30.078125-16.960938 40.960938l-7.039062 7.039062-32-24-1.601562-1.28125 25.601562-30.71875zm0 0" fill="#f9d48a"/><path d="m208 328 25.601562 30.71875-1.601562 1.28125-32 24-7.039062-7.039062c-10.882813-10.882813-16.960938-25.601563-16.960938-40.960938l-.320312-1.519531zm0 0" fill="#f9d48a"/><path d="m160 471.28125c-27.28125-10.722656-52.078125-26.320312-73.441406-45.761719l1.441406-1.519531v-39.199219c0-19.039062 13.441406-35.519531 32.160156-39.199219l55.519532-11.121093.320312 1.519531c0 15.359375 6.078125 30.078125 16.960938 40.960938l7.039062 7.039062 32-24 1.601562-1.28125 14.398438 17.28125 14.398438-17.28125 1.601562 1.28125 32 24 7.039062-7.039062c10.882813-10.882813 16.960938-25.601563 16.960938-40.960938l.320312-1.519531 55.519532 11.121093c18.71875 3.679688 32.160156 20.160157 32.160156 39.199219v39.199219l1.441406 1.519531c-21.363281 19.441407-46.160156 35.039063-73.441406 45.761719-27.28125 10.796875-56.960938 16.71875-88 16.71875s-60.71875-5.921875-88-16.71875zm0 0" fill="#ff958a"/><path d="m264 24c0 8.800781-7.199219 16-16 16s-16-7.199219-16-16c0-8.238281 6.320312-15.121094 14.398438-15.921875.5625-.078125 1.042968-.078125 1.601562-.078125s1.039062 0 1.601562.078125c8.078126.800781 14.398438 7.683594 14.398438 15.921875zm0 0" fill="#ff958a"/><path d="m359.679688 144h-223.359376c4.078126-58.078125 52.558594-104 111.679688-104 30.878906 0 58.878906 12.558594 79.199219 32.800781 18.480469 18.558594 30.5625 43.519531 32.480469 71.199219zm0 0" fill="#ff958a"/><path d="m264 94.640625v1.359375c0 8.800781-7.199219 16-16 16s-16-7.199219-16-16v-1.359375c0-4.242187 1.679688-8.320313 4.71875-11.359375l11.28125-11.28125 11.28125 11.28125c3.039062 3.039062 4.71875 7.117188 4.71875 11.359375zm0 0" fill="#f9d48a"/><path d="m168 144h160c0 17.679688-14.320312 32-32 32h-96c-17.679688 0-32-14.320312-32-32zm0 0" fill="#ff958a"/><path d="m360 152v56c0-17.679688-14.320312-32-32-32v-32h31.679688c.242187 2.640625.320312 5.28125.320312 8zm0 0" fill="#f9d48a"/><path d="m168 144v32c-17.679688 0-32 14.320312-32 32v-56c0-2.71875.078125-5.359375.320312-8zm0 0" fill="#f9d48a"/><g fill="#f5f7fa"><path d="m288 304v24l-25.601562 30.71875-14.398438 17.28125-14.398438-17.28125-25.601562-30.71875v-24l1.199219-2.078125c11.519531 6.476563 24.722656 10.078125 38.800781 10.078125s27.28125-3.601562 38.800781-10.078125zm0 0"/><path d="m360 208c0 17.679688-14.320312 32-32 32h-.398438c.238282-2.640625.398438-5.28125.398438-8v-56c17.679688 0 32 14.320312 32 32zm0 0"/><path d="m328 176v56c0 2.71875-.160156 5.359375-.398438 8-2.640624 26.71875-18.480468 49.519531-40.800781 61.921875-11.519531 6.476563-24.722656 10.078125-38.800781 10.078125s-27.28125-3.601562-38.800781-10.078125c-6.558594-3.601563-12.480469-8.082031-17.757813-13.363281-12.722656-12.71875-21.203125-29.679688-23.042968-48.558594-.238282-2.640625-.398438-5.28125-.398438-8v-88c0 17.679688 14.320312 32 32 32h96c17.679688 0 32-14.320312 32-32zm0 0"/><path d="m168 176v56c0 2.71875.160156 5.359375.398438 8h-.398438c-17.679688 0-32-14.320312-32-32s14.320312-32 32-32zm0 0"/></g><path d="m216 208c0 4.417969-3.582031 8-8 8s-8-3.582031-8-8 3.582031-8 8-8 8 3.582031 8 8zm0 0"/><path d="m296 208c0 4.417969-3.582031 8-8 8s-8-3.582031-8-8 3.582031-8 8-8 8 3.582031 8 8zm0 0"/><path d="m248 0c-136.742188 0-248 111.257812-248 248s111.257812 248 248 248 248-111.257812 248-248-111.257812-248-248-248zm8 24c0 4.40625-3.59375 8-8 8s-8-3.59375-8-8 3.59375-8 8-8 8 3.59375 8 8zm35.097656 312.777344 20.664063 4.132812c-1.113281 11.480469-6.121094 22.136719-14.386719 30.402344l-2.128906 2.128906-21.351563-16.015625zm-11.097656-11.671875-32 38.398437-32-38.398437v-11.21875c9.9375 3.898437 20.703125 6.113281 32 6.113281s22.0625-2.214844 32-6.113281zm-75.097656 11.671875 17.203125 20.636718-21.351563 16.019532-2.128906-2.128906c-8.265625-8.265626-13.273438-18.921876-14.386719-30.402344zm43.097656-32.777344c-39.695312 0-72-32.304688-72-72v-56.207031c6.703125 5.078125 14.960938 8.207031 24 8.207031h96c9.039062 0 17.296875-3.128906 24-8.207031v56.207031c0 39.695312-32.304688 72-72 72zm-88-73.472656c-9.289062-3.3125-16-12.113282-16-22.527344s6.710938-19.214844 16-22.527344zm192-54.320313c-4.671875-3.535156-10.054688-6.183593-16-7.390625v-16.816406h16zm-208-24.207031h16v16.808594c-5.945312 1.214844-11.328125 3.855468-16 7.390625zm33.472656 0h141.046875c-3.3125 9.289062-12.113281 16-22.527343 16h-95.992188c-10.414062 0-19.214844-6.710938-22.527344-16zm158.527344 33.472656c9.289062 3.3125 16 12.113282 16 22.527344s-6.710938 19.214844-16 22.527344zm-190.640625-49.472656c7.738281-49.761719 50.746094-88 102.640625-88s94.902344 38.238281 102.640625 88zm-129.359375 112c0-120.207031 91.894531-219.328125 209.121094-230.863281-.65625 2.191406-1.121094 4.464843-1.121094 6.863281 0 3.609375.855469 7 2.289062 10.070312-55.824218 10.257813-98.289062 59.1875-98.289062 117.929688v56c0 19.800781 14.503906 36.175781 33.425781 39.335938 4.300781 24.359374 18.613281 45.273437 38.574219 58.328124v15.785157l-81.40625 16.285156c-22.363281 4.457031-38.59375 24.257813-38.59375 47.058594v22.949219c-39.609375-41.628907-64-97.871094-64-159.742188zm152 217.777344v-73.777344h-16v67.121094c-20.425781-9.328125-39.257812-21.511719-56-36.074219v-38.253906c0-15.199219 10.824219-28.402344 25.726562-31.378907l46.816407-9.359374c1.769531 14.5625 8.242187 28.042968 18.769531 38.578124l11.933594 11.933594 33.113281-24.832031 15.640625 18.761719 15.640625-18.769532 33.113281 24.832032 11.933594-11.933594c10.535156-10.535156 17.007812-24.015625 18.769531-38.578125l46.816407 9.359375c14.902343 2.984375 25.726562 16.1875 25.726562 31.386719v38.253906c-16.742188 14.5625-35.574219 26.753906-56 36.074219v-67.121094h-16v73.777344c-24.953125 9.191406-51.894531 14.222656-80 14.222656s-55.046875-5.03125-80-14.222656zm248-58.023438v-22.953125c0-22.800781-16.230469-42.601562-38.585938-47.066406l-81.414062-16.292969v-15.785156c19.960938-13.046875 34.265625-33.96875 38.574219-58.328125 18.921875-3.152344 33.425781-19.527344 33.425781-39.328125v-56c0-58.742188-42.464844-107.671875-98.289062-117.929688 1.433593-3.070312 2.289062-6.460937 2.289062-10.070312 0-2.398438-.464844-4.671875-1.121094-6.863281 117.226563 11.535156 209.121094 110.65625 209.121094 230.863281 0 61.871094-24.390625 118.113281-64 159.753906zm0 0"/><path d="m248 60.6875-16.96875 16.96875c-4.535156 4.527344-7.03125 10.558594-7.03125 16.976562v1.367188c0 13.230469 10.769531 24 24 24s24-10.769531 24-24v-1.367188c0-6.410156-2.496094-12.441406-7.03125-16.976562zm8 35.3125c0 4.40625-3.59375 8-8 8s-8-3.59375-8-8v-1.367188c0-2.136718.832031-4.152343 2.34375-5.664062l5.65625-5.65625 5.65625 5.65625c1.511719 1.511719 2.34375 3.527344 2.34375 5.664062zm0 0"/><path d="m240 408h16v16h-16zm0 0"/><path d="m240 448h16v16h-16zm0 0"/><path d="m248 264c-8.824219 0-16-7.175781-16-16h-16c0 17.648438 14.351562 32 32 32s32-14.351562 32-32h-16c0 8.824219-7.175781 16-16 16zm0 0"/></svg>