<svg height="512" viewBox="0 0 60 53" width="512" xmlns="http://www.w3.org/2000/svg"><g id="Page-1" fill="none" fill-rule="evenodd"><g id="052---Removal-Service"><path id="Path" d="m43 31v6h-39c-1.10320187-.0032948-1.9967052-.8967981-2-2v-4z" fill="#9e9e9e"/><path id="Rectangle" d="m40 31h3v6h-3z" fill="#707070"/><path id="Path" d="m43 3v28h-41v-28c.0032948-1.10320187.89679813-1.9967052 2-2h37c1.1032019.0032948 1.9967052.89679813 2 2z" fill="#7f8e94"/><path id="Path" d="m41 1h-3c1.1032019.0032948 1.9967052.89679813 2 2v28h3v-28c-.0032948-1.10320187-.8967981-1.9967052-2-2z" fill="#545c60"/><path id="Path" d="m58 26v11h-15v-24h4v11c.0032948 1.1032019.8967981 1.9967052 2 2z" fill="#ffdc00"/><path id="Rectangle" d="m55 26h3v11h-3z" fill="#fec108"/><rect id="Rectangle" fill="#7f8e94" height="5" rx="1" width="58" x="1" y="37"/><path id="Path" d="m58 37h-3c.5522847 0 1 .4477153 1 1v3c0 .5522847-.4477153 1-1 1h3c.5522847 0 1-.4477153 1-1v-3c0-.5522847-.4477153-1-1-1z" fill="#545c60"/><circle id="Oval" cx="13" cy="44" fill="#607d8b" r="7"/><path id="Path" d="m13 37c-.5044849.0007873-1.0074065.0561087-1.5.165 3.2064126.7087816 5.4891145 3.5511831 5.4891145 6.835s-2.2827019 6.1262184-5.4891145 6.835c2.6211486.579393 5.3427728-.3912156 7.0057888-2.4984637 1.663016-2.107248 1.9744743-4.9799318.8017312-7.3946348-1.172743-2.4147029-3.6231022-3.9460614-6.30752-3.9419015z" fill="#37474f"/><circle id="Oval" cx="13" cy="44" fill="#7f8e94" r="3"/><circle id="Oval" cx="49" cy="44" fill="#607d8b" r="7"/><path id="Path" d="m49 37c-.5044849.0007873-1.0074065.0561087-1.5.165 3.2064126.7087816 5.4891145 3.5511831 5.4891145 6.835s-2.2827019 6.1262184-5.4891145 6.835c2.6211486.579393 5.3427728-.3912156 7.0057888-2.4984637 1.663016-2.107248 1.9744743-4.9799318.8017312-7.3946348-1.172743-2.4147029-3.6231022-3.9460614-6.30752-3.9419015z" fill="#37474f"/><circle id="Oval" cx="49" cy="44" fill="#7f8e94" r="3"/><path id="Path" d="m58 26h-9c-1.1032019-.0032948-1.9967052-.8967981-2-2v-11.0000223l5.52.0000223c.8784358-.0041386 1.655234.5693093 1.91 1.41z" fill="#02a9f4"/><path id="Path" d="m54.43 14.41c-.254766-.8406907-1.0315642-1.4141386-1.91-1.41l-3-.0000223c.8784358-.0041163 1.655234.5693316 1.91 1.4100223l3.57 11.59h3z" fill="#0377bc"/><path id="Path" d="m57 12c0 .5522847-.4477153 1-1 1h-13v-8h7c3.8659932 0 7 3.13400675 7 7z" fill="#ffeb3a"/><path id="Path" d="m50 5h-3c3.8659932 0 7 3.13400675 7 7 0 .5522847-.4477153 1-1 1h3c.5522847 0 1-.4477153 1-1 0-3.86599325-3.1340068-7-7-7z" fill="#fdd834"/><rect id="Rectangle" fill="#91562d" height="12" rx="1" width="12" x="6" y="19"/><path id="Path" d="m14 19v4c0 .5522847-.4477153 1-1 1h-2c-.5522847 0-1-.4477153-1-1v-4z" fill="#ff9801"/><rect id="Rectangle" fill="#91562d" height="12" rx="1" width="12" x="6" y="7"/><path id="Path" d="m14 7v4c0 .5522847-.4477153 1-1 1h-2c-.5522847 0-1-.4477153-1-1v-4z" fill="#ff9801"/><path id="Path" d="m29.152 25h-6.3c-.2655179-.0058547-.5137816-.1328054-.6739717-.3446383-.16019-.2118328-.2147177-.4852887-.1480283-.7423617l1.271-5.25c.0871318-.3832034.4250598-.6570986.818-.663h3.762c.394442.0040663.7345169.2783603.822.663l1.271 5.25c.0666894.257073.0121617.5305289-.1480283.7423617-.1601901.2118329-.4084538.3387836-.6739717.3446383z" fill="#ffdc00"/><path id="Path" d="m22 31 2-3v-3h4v3l2 3z" fill="#9e9e9e"/><path id="Path" d="m40 31h-8l2-3v-12.77c1.1356281 1.0268535 2.8643719 1.0268535 4 0v12.77z" fill="#9e9e9e"/><path id="Path" d="m39 13c0 1.6568542-1.3431458 3-3 3s-3-1.3431458-3-3 1.3431458-3 3-3 3 1.3431458 3 3z" fill="#ffdc00"/><g fill="#000" fill-rule="nonzero"><path id="Shape" d="m59 36.278v-10.278c-.0000411-.0996371-.0148693-.1987165-.044-.294l-3.565-11.588c-.013-.041-.033-.078-.047-.118h.656c1.1045695 0 2-.8954305 2-2-.0049599-4.41622192-3.5837781-7.99504012-8-8h-6v-1c0-1.65685425-1.3431458-3-3-3h-37c-1.65685425 0-3 1.34314575-3 3v32c-.00026979.3962764.07860613.7886161.232 1.154-.74572485.3101354-1.23173096 1.0383556-1.232 1.846v3c0 1.1045695.8954305 2 2 2h3.069c-.40759388 3.0832557 1.0086845 6.1233003 3.63140189 7.7948121 2.62271741 1.6715118 5.97647881 1.6715118 8.59919621 0s4.0389958-4.7115564 3.6314019-7.7948121h20.138c-.4075939 3.0832557 1.0086845 6.1233003 3.6314019 7.7948121s5.9764788 1.6715118 8.5991962 0 4.0389958-4.7115564 3.6314019-7.7948121h1.069c1.1045695 0 2-.8954305 2-2v-3c-.002145-.7113268-.3832487-1.3675874-1-1.722zm-56-1.278v-3h39v4h-38c-.55228475 0-1-.4477153-1-1zm8-27h2v3h-2zm0 5h2c1.1045695 0 2-.8954305 2-2v-3h2v10h-10v-10h2v3c0 1.1045695.8954305 2 2 2zm0 7h2v3h-2zm-4 0h2v3c0 1.1045695.8954305 2 2 2h2c1.1045695 0 2-.8954305 2-2v-3h2v10h-10zm20.757-1 1.252 5h-5.975l1.21-5zm-2.757 9v-2h2v2c.0003124.1974794.0587401.3904993.168.555l.964 1.445h-4.264l.964-1.445c.1092599-.1645007.1676876-.3575206.168-.555zm11-13c-1.1045695 0-2-.8954305-2-2s.8954305-2 2-2 2 .8954305 2 2-.8954305 2-2 2zm-1.168 13.555c.1092599-.1645007.1676876-.3575206.168-.555v-11.142c.653223.1893403 1.346777.1893403 2 0v11.142c.0003124.1974794.0587401.3904993.168.555l.964 1.445h-4.264zm9.168 7.445v-22h2v10c0 1.6568542 1.3431458 3 3 3h8v9zm9.479-21.294 3.167 10.294h-7.646c-.5522847 0-1-.4477153-1-1v-10h4.523c.4391099-.0000854.8269017.2862963.956.706zm-3.479-8.706c3.3123376.00330738 5.9966926 2.68766243 6 6h-12v-6zm-46-4h37c.5522847 0 1 .44771525 1 1v27h-1.465l-1.535-2.3v-12.082c1.4182283-1.6081197 1.3162204-4.0484851-.2312657-5.5326372-1.5474861-1.48415214-3.9899825-1.48415214-5.5374686 0-1.5474861 1.4841521-1.649494 3.9245175-.2312657 5.5326372v12.082l-1.535 2.3h-.93l-1.535-2.3v-1.7h.152c.5634965.0017022 1.0962854-.2565749 1.444-.7.3601689-.4560039.4893613-1.0528727.35-1.617l-1.271-5.25c-.1927179-.8362828-.9358047-1.429841-1.794-1.433h-3.762c-.8567112.0026156-1.599296.5937031-1.794 1.428l-1.271 5.25c-.142112.5650739-.0143285 1.1641052.346 1.622.3477146.4434251.8805035.7017022 1.444.7h.156v1.7l-1.535 2.3h-2.465v-10c-.0019998-.3521367-.0979706-.6973555-.278-1 .1800294-.3026445.2760002-.6478633.278-1v-10c0-1.1045695-.8954305-2-2-2h-10c-1.1045695 0-2 .8954305-2 2v10c.00199983.3521367.09797065.6973555.278 1-.18002935.3026445-.27600017.6478633-.278 1v10h-2v-27c0-.55228475.44771525-1 1-1zm-2 39v-3h5.726c-.93537456.8207169-1.66699123 1.8477876-2.137 3zm11 9c-3.3137085 0-6-2.6862915-6-6s2.6862915-6 6-6 6 2.6862915 6 6c-.0033074 3.3123376-2.6876624 5.9966926-6 6zm7.411-9c-.4700088-1.1522124-1.2016254-2.1792831-2.137-3h25.452c-.9353746.8207169-1.6669912 1.8477876-2.137 3zm28.589 9c-3.3137085 0-6-2.6862915-6-6s2.6862915-6 6-6 6 2.6862915 6 6c-.0033074 3.3123376-2.6876624 5.9966926-6 6zm9-9h-1.589c-.4700088-1.1522124-1.2016254-2.1792831-2.137-3h3.726z"/><path id="Shape" d="m13 40c-2.209139 0-4 1.790861-4 4s1.790861 4 4 4 4-1.790861 4-4-1.790861-4-4-4zm0 6c-1.1045695 0-2-.8954305-2-2s.8954305-2 2-2 2 .8954305 2 2-.8954305 2-2 2z"/><path id="Shape" d="m49 40c-2.209139 0-4 1.790861-4 4s1.790861 4 4 4 4-1.790861 4-4-1.790861-4-4-4zm0 6c-1.1045695 0-2-.8954305-2-2s.8954305-2 2-2 2 .8954305 2 2-.8954305 2-2 2z"/></g></g></g></svg>