<svg height="464pt" viewBox="0 0 464 464" width="464pt" xmlns="http://www.w3.org/2000/svg"><path d="m16 320h432v144h-432zm0 0" fill="#a9bfd1"/><path d="m0 304h464v32h-464zm0 0" fill="#7d8f9f"/><path d="m158.472656 176h147.054688c12.410156 0 22.472656 10.0625 22.472656 22.472656v105.527344h-192v-105.527344c0-12.410156 10.0625-22.472656 22.472656-22.472656zm0 0" fill="#f7ce49"/><path d="m136 272h56v32h-56zm0 0" fill="#ffdbc0"/><path d="m272 272h56v32h-56zm0 0" fill="#ffdbc0"/><path d="m160 216h16v56h-16zm0 0" fill="#d3a116"/><path d="m288 216h16v56h-16zm0 0" fill="#d3a116"/><path d="m264 232-32-32-32 32v-56h64zm0 0" fill="#e3472c"/><path d="m256 0h-48c-17.671875 0-32 14.328125-32 32v80c0 17.671875 14.328125 32 32 32v32l24 24 24-24v-32c17.671875 0 32-14.328125 32-32v-80c0-17.671875-14.328125-32-32-32zm0 0" fill="#ffdbc0"/><path d="m288 48h-112l15.03125 15.03125c10.867188 10.867188 25.601562 16.96875 40.96875 16.96875s30.101562-6.101562 40.96875-16.96875zm0 0" fill="#ec7422"/><path d="m288 32c0-17.671875-14.328125-32-32-32h-48c-17.671875 0-32 14.328125-32 32v16h112zm0 0" fill="#e3472c"/></svg>