<svg id="Layer_1" height="512" viewBox="0 0 512 512" width="512" xmlns="http://www.w3.org/2000/svg"><g><g><path d="m96 336h32v48h-32z" fill="#463c4b"/></g><g><path d="m176 304h-144c-8.837 0-16 7.163-16 16 0 8.837 7.163 16 16 16h144c8.837 0 16-7.163 16-16 0-8.837-7.163-16-16-16z" fill="#463c4b"/></g><g><path d="m88 304h-56c-8.837 0-16 7.163-16 16 0 8.837 7.163 16 16 16h56c8.837 0 16-7.163 16-16 0-8.837-7.163-16-16-16z" fill="#555a6e"/></g><g><path d="m112 480h208c8.837 0 16-7.163 16-16v-128h-208c-17.673 0-32 14.327-32 32v96c0 8.837 7.163 16 16 16z" fill="#e1322d"/></g><path d="m176 336c-17.673 0-32 14.327-32 32v64c-17.673 0-32 14.327-32 32 0 8.837 7.164 16 16 16h96v-144z" fill="#555a6e"/><path d="m224 336c-17.673 0-32 14.327-32 32v64c-17.673 0-32 14.327-32 32 0 8.837 7.164 16 16 16h96v-144z" fill="#463c4b"/><g><path d="m288 480h192c8.837 0 16-7.163 16-16v-240c0-17.673-14.327-32-32-32h-160c-17.673 0-32 14.327-32 32v240c0 8.837 7.163 16 16 16z" fill="#f04b37"/></g><g><path d="m400 336h-128v-112c0-17.673 14.327-32 32-32h96z" fill="#a5c3dc"/></g><g><path d="m320 240c8.837 0 16-7.163 16-16 0-17.673 14.327-32 32-32h-32c-17.673 0-32 14.327-32 32 0 8.837 7.163 16 16 16z" fill="#f0915a"/></g><g><path d="m296 192h72v-80c0-17.673-14.327-32-32-32h-24c-17.673 0-32 14.327-32 32v64c0 8.837 7.163 16 16 16z" fill="#f0915a"/></g><g><path d="m328 192h-32c-8.837 0-16-7.163-16-16v-64c0-17.673 14.327-32 32-32 17.673 0 32 14.327 32 32v64c0 8.837-7.163 16-16 16z" fill="#fab991"/></g><g><path d="m336 152c-4.418 0-8-3.582-8-8v-24c0-4.418-3.582-8-8-8h-40c0-17.673 14.327-32 32-32h32c17.673 0 32 14.327 32 32v52c0 6.627-5.373 12-12 12-6.627 0-12-5.373-12-12v-12z" fill="#463c4b"/></g><g><path d="m344 160c-4.418 0-8-3.582-8-8v-16c0-4.418 3.582-8 8-8 8.837 0 16 7.163 16 16 0 8.837-7.163 16-16 16z" fill="#f0915a"/></g><g><circle cx="144" cy="128" fill="#d7e6f0" r="96"/></g><g><g><path d="m184 176c-2.048 0-4.095-.781-5.657-2.343l-40-40c-1.5-1.501-2.343-3.535-2.343-5.657v-80c0-4.418 3.582-8 8-8s8 3.582 8 8v76.687l37.657 37.656c3.124 3.125 3.124 8.189 0 11.314-1.562 1.562-3.609 2.343-5.657 2.343z" fill="#f06423"/></g><g><circle cx="144" cy="128" fill="#faa019" r="16"/></g><g><path d="m224 136h-8c-4.418 0-8-3.582-8-8s3.582-8 8-8h8c4.418 0 8 3.582 8 8s-3.582 8-8 8z" fill="#a5c3dc"/></g><g><path d="m72 136h-8c-4.418 0-8-3.582-8-8s3.582-8 8-8h8c4.418 0 8 3.582 8 8s-3.582 8-8 8z" fill="#a5c3dc"/></g><g><path d="m144 216c-4.418 0-8-3.582-8-8v-8c0-4.418 3.582-8 8-8s8 3.582 8 8v8c0 4.418-3.582 8-8 8z" fill="#a5c3dc"/></g></g><g><path d="m400 336h-64c-17.673 0-32-14.327-32-32s14.327-32 32-32h32v-48c0-17.673 14.327-32 32-32s32 14.327 32 32v80c0 17.673-14.327 32-32 32z" fill="#d7e6f0"/></g><path d="m464 192c-17.673 0-32 14.327-32 32v112h-160c-17.673 0-32 14.327-32 32v96c0 8.837 7.164 16 16 16h224c8.836 0 16-7.163 16-16v-240c0-17.673-14.327-32-32-32z" fill="#e1322d"/><g><path d="m256 480h32c8.837 0 16-7.163 16-16v-96c0-17.673-14.327-32-32-32-17.673 0-32 14.327-32 32v96c0 8.837 7.163 16 16 16z" fill="#f04b37"/></g><g><path d="m304 336h32v-64h-24c-4.418 0-8 3.582-8 8z" fill="#d7e6f0"/></g><g><path d="m208 336h64v-64h-56c-4.418 0-8 3.582-8 8z" fill="#87a5be"/></g><g><path d="m248 336h56v-48h-32c-17.673 0-32 14.327-32 32v8c0 4.418 3.582 8 8 8z" fill="#fab991"/></g><g><path d="m152 336h56v-48h-32c-17.673 0-32 14.327-32 32v8c0 4.418 3.582 8 8 8z" fill="#f0915a"/></g><g><path d="m104 240h-32c-4.418 0-8 3.582-8 8v48c0 4.418 3.582 8 8 8h32c4.418 0 8-3.582 8-8v-48c0-4.418-3.582-8-8-8z" fill="#23aae6"/></g><g><path d="m88 248c0-4.418 3.582-8 8-8h-24c-4.418 0-8 3.582-8 8v48h24z" fill="#5ad7ff"/></g><g><path d="m120 296h-8v-16h8v-16h-8v-16h8c8.822 0 16 7.178 16 16v16c0 8.822-7.178 16-16 16z" fill="#2387c3"/></g></g></svg>